
        <svg width="350" height="200" viewBox="0 0 350 200" fill="none" xmlns="http://www.w3.org/2000/svg">
            <rect width="350" height="200" rx="4.5" fill="#282828" stroke="#3c3836" />
            
            <style>
                .header { font: 600 18px 'Segoe UI', Ubuntu, Sans-Serif; fill: #b8bb26; }
                .stat { font: 600 14px 'Segoe UI', Ubuntu, Sans-Serif; fill: #ebdbb2; }
                .stagger { animation: fadeInAnimation 0.8s ease-in-out forwards; }
                @keyframes fadeInAnimation { from { opacity: 0; } to { opacity: 1; } }
            </style>
        
            
            <g transform="translate(25, 35)">
                <text x="0" y="0" class="header">Top Languages</text>
            </g>
            
            
            <g transform="translate(25, 55)">
                <text x="0" y="0" class="stat" style="font-size: 12px;">C++</text>
                <text x="290" y="0" class="stat" style="font-size: 12px; text-anchor: end;">47.6%</text>
                
                <rect x="0" y="8" width="200" height="8" rx="4" fill="#3c3836" />
                <rect x="0" y="8" width="95.10654394700937" height="8" rx="4" fill="#f34b7d" />
            </g>
            
            <g transform="translate(25, 85)">
                <text x="0" y="0" class="stat" style="font-size: 12px;">Python</text>
                <text x="290" y="0" class="stat" style="font-size: 12px; text-anchor: end;">20.1%</text>
                
                <rect x="0" y="8" width="200" height="8" rx="4" fill="#3c3836" />
                <rect x="0" y="8" width="40.17358398152791" height="8" rx="4" fill="#3572A5" />
            </g>
            
            <g transform="translate(25, 115)">
                <text x="0" y="0" class="stat" style="font-size: 12px;">Jupyter Notebook</text>
                <text x="290" y="0" class="stat" style="font-size: 12px; text-anchor: end;">17.3%</text>
                
                <rect x="0" y="8" width="200" height="8" rx="4" fill="#3c3836" />
                <rect x="0" y="8" width="34.65695735326702" height="8" rx="4" fill="#DA5B0B" />
            </g>
            
            <g transform="translate(25, 145)">
                <text x="0" y="0" class="stat" style="font-size: 12px;">CSS</text>
                <text x="290" y="0" class="stat" style="font-size: 12px; text-anchor: end;">5.5%</text>
                
                <rect x="0" y="8" width="200" height="8" rx="4" fill="#3c3836" />
                <rect x="0" y="8" width="11.043602990052594" height="8" rx="4" fill="#663399" />
            </g>
            
            <g transform="translate(25, 175)">
                <text x="0" y="0" class="stat" style="font-size: 12px;">HTML</text>
                <text x="290" y="0" class="stat" style="font-size: 12px; text-anchor: end;">3.9%</text>
                
                <rect x="0" y="8" width="200" height="8" rx="4" fill="#3c3836" />
                <rect x="0" y="8" width="7.809092605334049" height="8" rx="4" fill="#e34c26" />
            </g>
            
        </svg>
        