
    <svg width="300" height="275" viewBox="0 0 300 275" xmlns="http://www.w3.org/2000/svg">
        <style>
            .header { font: 600 18px 'Segoe UI', Ubuntu, Sans-Serif; fill: #fabd2f; }
            .lang-name { font: 400 12px 'Segoe UI', Ubuntu, Sans-Serif; fill: #ebdbb2; }
            .lang-pct { font: 400 12px 'Segoe UI', Ubuntu, Sans-Serif; fill: #a89984; }
            .card-bg { fill: #282828; stroke: #3c3836; stroke-width: 2px; }
        </style>
        <rect x="1" y="1" rx="10" height="273" width="298" class="card-bg"/>
        <text x="20" y="35" class="header">💻 Top Languages</text>
    
        <g transform="translate(20, 60)">
            <circle cx="5" cy="6" r="5" fill="#f34b7d" />
            <text x="15" y="10" class="lang-name">C++</text>
            <text x="250" y="10" class="lang-pct" text-anchor="end">47.6%</text>
            <rect x="0" y="20" width="260" height="6" rx="3" fill="#3c3836" />
            <rect x="0" y="20" width="123.74664889624216" height="6" rx="3" fill="#f34b7d" />
        </g>
        
        <g transform="translate(20, 95)">
            <circle cx="5" cy="6" r="5" fill="#3572A5" />
            <text x="15" y="10" class="lang-name">Python</text>
            <text x="250" y="10" class="lang-pct" text-anchor="end">19.7%</text>
            <rect x="0" y="20" width="260" height="6" rx="3" fill="#3c3836" />
            <rect x="0" y="20" width="51.10032921972809" height="6" rx="3" fill="#3572A5" />
        </g>
        
        <g transform="translate(20, 130)">
            <circle cx="5" cy="6" r="5" fill="#DA5B0B" />
            <text x="15" y="10" class="lang-name">Jupyter Notebook</text>
            <text x="250" y="10" class="lang-pct" text-anchor="end">17.3%</text>
            <rect x="0" y="20" width="260" height="6" rx="3" fill="#3c3836" />
            <rect x="0" y="20" width="45.09345156939256" height="6" rx="3" fill="#DA5B0B" />
        </g>
        
        <g transform="translate(20, 165)">
            <circle cx="5" cy="6" r="5" fill="#663399" />
            <text x="15" y="10" class="lang-name">CSS</text>
            <text x="250" y="10" class="lang-pct" text-anchor="end">5.5%</text>
            <rect x="0" y="20" width="260" height="6" rx="3" fill="#3c3836" />
            <rect x="0" y="20" width="14.369241116793853" height="6" rx="3" fill="#663399" />
        </g>
        
        <g transform="translate(20, 200)">
            <circle cx="5" cy="6" r="5" fill="#e34c26" />
            <text x="15" y="10" class="lang-name">HTML</text>
            <text x="250" y="10" class="lang-pct" text-anchor="end">3.9%</text>
            <rect x="0" y="20" width="260" height="6" rx="3" fill="#3c3836" />
            <rect x="0" y="20" width="10.160699787061292" height="6" rx="3" fill="#e34c26" />
        </g>
        </svg>