
    <svg width="300" height="275" viewBox="0 0 300 275" xmlns="http://www.w3.org/2000/svg">
        <style>
            .header { font: 600 18px 'Segoe UI', Ubuntu, Sans-Serif; fill: #fabd2f; }
            .lang-name { font: 400 12px 'Segoe UI', Ubuntu, Sans-Serif; fill: #ebdbb2; }
            .lang-pct { font: 400 12px 'Segoe UI', Ubuntu, Sans-Serif; fill: #a89984; }
            .card-bg { fill: #282828; stroke: #3c3836; stroke-width: 2px; }
        </style>
        <rect x="1" y="1" rx="10" height="273" width="298" class="card-bg"/>
        <text x="20" y="35" class="header">💻 Top Languages</text>
    
        <g transform="translate(20, 60)">
            <circle cx="5" cy="6" r="5" fill="#3572A5" />
            <text x="15" y="10" class="lang-name">Python</text>
            <text x="250" y="10" class="lang-pct" text-anchor="end">82.6%</text>
            <rect x="0" y="20" width="260" height="6" rx="3" fill="#3c3836" />
            <rect x="0" y="20" width="214.87519685159086" height="6" rx="3" fill="#3572A5" />
        </g>
        
        <g transform="translate(20, 95)">
            <circle cx="5" cy="6" r="5" fill="#f34b7d" />
            <text x="15" y="10" class="lang-name">C++</text>
            <text x="250" y="10" class="lang-pct" text-anchor="end">8.1%</text>
            <rect x="0" y="20" width="260" height="6" rx="3" fill="#3c3836" />
            <rect x="0" y="20" width="21.053851744199577" height="6" rx="3" fill="#f34b7d" />
        </g>
        
        <g transform="translate(20, 130)">
            <circle cx="5" cy="6" r="5" fill="#DA5B0B" />
            <text x="15" y="10" class="lang-name">Jupyter Notebook</text>
            <text x="250" y="10" class="lang-pct" text-anchor="end">3.0%</text>
            <rect x="0" y="20" width="260" height="6" rx="3" fill="#3c3836" />
            <rect x="0" y="20" width="7.672052960175675" height="6" rx="3" fill="#DA5B0B" />
        </g>
        
        <g transform="translate(20, 165)">
            <circle cx="5" cy="6" r="5" fill="#663399" />
            <text x="15" y="10" class="lang-name">CSS</text>
            <text x="250" y="10" class="lang-pct" text-anchor="end">2.1%</text>
            <rect x="0" y="20" width="260" height="6" rx="3" fill="#3c3836" />
            <rect x="0" y="20" width="5.40586412177956" height="6" rx="3" fill="#663399" />
        </g>
        
        <g transform="translate(20, 200)">
            <circle cx="5" cy="6" r="5" fill="#f1e05a" />
            <text x="15" y="10" class="lang-name">JavaScript</text>
            <text x="250" y="10" class="lang-pct" text-anchor="end">2.1%</text>
            <rect x="0" y="20" width="260" height="6" rx="3" fill="#3c3836" />
            <rect x="0" y="20" width="5.332967364322502" height="6" rx="3" fill="#f1e05a" />
        </g>
        </svg>